<?xml version="1.0" standalone="no"?>
<!DOCTYPE svg PUBLIC "-//W3C//DTD SVG 20010904//EN"
 "http://www.w3.org/TR/2001/REC-SVG-20010904/DTD/svg10.dtd">
<svg version="1.0" xmlns="http://www.w3.org/2000/svg"
 width="1133.000000pt" height="434.000000pt" viewBox="0 0 1133.000000 434.000000"
 preserveAspectRatio="xMidYMid meet">
<g transform="translate(0.000000,434.000000) scale(0.100000,-0.100000)" fill="#FFF" stroke="none">
<path d="M8548 4326 c-65 -23 -125 -65 -210 -144 -46 -43 -137 -125 -203 -182
-322 -282 -746 -730 -1276 -1351 -176 -205 -369 -439 -444 -536 -38 -49 -43
-52 -86 -53 -57 0 -242 -33 -374 -66 -125 -31 -251 -70 -633 -195 -359 -118
-533 -165 -661 -179 -52 -6 -95 -9 -97 -7 -2 2 2 34 7 72 16 97 7 210 -18 260
-62 118 -165 149 -414 120 -341 -38 -683 -126 -1337 -344 -444 -149 -570 -181
-1122 -290 -378 -74 -496 -94 -680 -111 -201 -20 -207 -13 -40 49 239 89 376
127 607 166 263 45 404 93 485 164 41 36 78 104 78 144 0 89 -91 217 -182 257
-79 35 -295 37 -808 11 -228 -12 -512 -25 -630 -29 -201 -7 -218 -9 -258 -32
-48 -27 -97 -93 -113 -154 -32 -119 48 -250 171 -277 27 -6 103 -6 209 1 91 5
213 12 271 15 103 5 104 5 65 -10 -22 -9 -121 -41 -220 -72 -275 -85 -453
-169 -557 -262 -58 -52 -78 -87 -78 -136 0 -102 118 -201 287 -241 58 -14 114
-15 383 -10 518 9 917 52 1418 152 380 75 654 146 1230 315 395 116 706 199
744 199 10 0 13 -24 13 -108 0 -209 80 -327 245 -362 124 -26 184 -14 577 119
393 132 593 194 873 271 102 28 191 53 198 55 7 3 -7 -23 -32 -58 -279 -383
-399 -595 -492 -873 -61 -183 -67 -341 -15 -442 43 -83 145 -145 271 -164 138
-21 331 50 511 186 215 163 630 646 867 1010 65 99 160 277 201 374 21 51 23
53 52 47 17 -4 56 -11 87 -16 58 -9 760 -27 1109 -28 l192 -1 -1 -107 c0 -167
17 -227 84 -289 79 -74 165 -100 296 -91 72 5 130 22 411 117 728 248 1336
410 1535 410 122 0 207 40 258 120 25 38 29 53 25 97 -6 85 -60 146 -170 192
-54 22 -76 26 -172 25 -190 0 -402 -52 -988 -243 -398 -130 -567 -177 -696
-191 -52 -6 -96 -9 -98 -7 -2 2 1 35 7 73 29 200 -12 312 -131 364 -74 31
-218 36 -540 16 -146 -9 -351 -16 -455 -16 -214 0 -599 24 -659 41 -22 6 -64
27 -94 47 -50 35 -58 37 -130 37 -58 -1 -86 -6 -117 -22 -59 -32 -111 -95
-123 -153 -16 -76 18 -184 73 -229 13 -11 9 -23 -36 -89 -103 -154 -194 -265
-453 -552 -277 -308 -419 -440 -547 -510 -60 -32 -62 -33 -47 -10 9 14 78 126
154 250 176 288 269 425 502 742 413 563 643 850 1052 1318 440 502 673 729
1011 985 151 114 165 137 158 249 -5 81 -40 139 -101 167 -49 22 -126 24 -179
5z"/>
<path d="M5157 3950 c-278 -25 -507 -107 -636 -226 -68 -63 -121 -160 -146
-269 -36 -151 19 -276 161 -370 291 -193 962 -218 1299 -47 108 54 189 167
210 290 6 39 10 43 29 37 11 -3 57 -9 101 -12 104 -7 152 14 184 80 28 57 29
174 2 233 -58 127 -280 229 -584 269 -145 18 -487 27 -620 15z m347 -420 c166
-26 204 -38 230 -74 30 -39 28 -102 -4 -127 -40 -32 -100 -57 -196 -80 -78
-18 -108 -20 -249 -15 -291 10 -499 65 -534 142 -27 59 120 147 290 173 92 14
302 5 463 -19z"/>
<path d="M8900 2822 c0 -5 -16 -14 -35 -22 -19 -8 -35 -17 -35 -22 0 -4 -3 -7
-7 -7 -21 3 -33 -2 -33 -16 0 -8 -4 -15 -9 -15 -5 0 -16 -16 -25 -35 -10 -20
-21 -33 -25 -30 -20 12 -29 -188 -11 -230 5 -11 9 -15 9 -10 1 6 10 -5 21 -23
27 -44 62 -78 88 -87 12 -3 20 -10 17 -15 -8 -12 33 -20 111 -20 90 0 134 9
134 26 0 8 6 14 14 14 34 0 116 114 116 161 0 10 5 19 10 19 6 0 10 23 10 50
0 28 -4 50 -10 50 -5 0 -10 6 -10 14 0 37 -74 146 -100 146 -5 0 -10 5 -10 10
0 6 -9 10 -20 10 -11 0 -20 5 -20 10 0 6 -11 10 -25 10 -14 0 -25 5 -25 10 0
6 -28 10 -65 10 -36 0 -65 -4 -65 -8z"/>
</g>
</svg>
